<svg width="17" height="17" viewBox="0 0 17 17" fill="none" xmlns="http://www.w3.org/2000/svg">
<path d="M9.72257 7.27764C9.07411 6.62945 8.19477 6.26532 7.2779 6.26532C6.36103 6.26532 5.4817 6.62945 4.83324 7.27764L2.38778 9.7223C1.73931 10.3708 1.375 11.2503 1.375 12.1674C1.375 13.0844 1.73931 13.964 2.38778 14.6124C3.03625 15.2609 3.91576 15.6252 4.83284 15.6252C5.74992 15.6252 6.62943 15.2609 7.2779 14.6124L8.50024 13.3901" stroke="black" stroke-width="2" stroke-linecap="round" stroke-linejoin="round"/>
<path d="M7.27734 9.72232C7.9258 10.3705 8.80514 10.7346 9.72201 10.7346C10.6389 10.7346 11.5182 10.3705 12.1667 9.72232L14.6121 7.27766C15.2606 6.62919 15.6249 5.74967 15.6249 4.8326C15.6249 3.91552 15.2606 3.036 14.6121 2.38753C13.9637 1.73906 13.0841 1.37476 12.1671 1.37476C11.25 1.37476 10.3705 1.73906 9.72201 2.38753L8.49968 3.60987" stroke="black" stroke-width="2" stroke-linecap="round" stroke-linejoin="round"/>
</svg>
