<svg width="24" height="24" viewBox="0 0 24 24" fill="none" xmlns="http://www.w3.org/2000/svg">
<path d="M16.3334 4.33333H7.46204C7.19078 4.33428 6.92618 4.42187 6.70323 4.58451C6.48027 4.74715 6.30946 4.97719 6.21337 5.24421L4.37537 10.4028C4.34747 10.4816 4.33324 10.565 4.33337 10.6491V12.0526C4.33337 12.8267 4.93137 13.4561 5.66671 13.4561H9.40804L8.66004 15.8189C8.59335 16.0299 8.57514 16.2545 8.60689 16.4744C8.63864 16.6942 8.71946 16.9029 8.84271 17.0835C9.09337 17.4484 9.49737 17.6667 9.92537 17.6667H11C11.198 17.6667 11.3854 17.574 11.5127 17.414L14.646 13.4561H16.3334C17.0687 13.4561 17.6667 12.8267 17.6667 12.0526V5.73684C17.6667 4.96281 17.0687 4.33333 16.3334 4.33333ZM10.6874 16.2632H9.92404L10.9654 12.9761C10.9987 12.8707 11.0078 12.7584 10.9919 12.6486C10.976 12.5387 10.9355 12.4344 10.8738 12.3442C10.8121 12.254 10.7309 12.1806 10.637 12.1299C10.543 12.0792 10.439 12.0527 10.3334 12.0526H5.66671V10.7761L7.46204 5.73684H13.6667V12.5004L10.6874 16.2632ZM15 12.0526V5.73684H16.3334L16.334 12.0526H15Z" fill="#282828"/>
<circle cx="11" cy="11" r="10.75" stroke="#282828" stroke-width="0.5"/>
</svg>
