<svg width="14" height="14" viewBox="0 0 14 14" fill="none" xmlns="http://www.w3.org/2000/svg">
<path d="M7.00065 0.333313C3.33398 0.333313 0.333984 3.33867 0.333984 7.04014C0.333984 10.3869 2.77398 13.1646 5.96065 13.6666V8.98124H4.26732V7.04014H5.96065V5.56089C5.96065 3.88084 6.95398 2.95714 8.48065 2.95714C9.20732 2.95714 9.96732 3.08432 9.96732 3.08432V4.7376H9.12732C8.30065 4.7376 8.04065 5.25299 8.04065 5.78177V7.04014H9.89398L9.59398 8.98124H8.04065V13.6666C9.61161 13.4175 11.0421 12.6128 12.0739 11.3976C13.1058 10.1824 13.6709 8.63696 13.6673 7.04014C13.6673 3.33867 10.6673 0.333313 7.00065 0.333313Z" fill="white"/>
</svg>
