<svg width="24" height="24" viewBox="0 0 24 24" fill="none" xmlns="http://www.w3.org/2000/svg">
<path d="M16.3334 8.54386H12.592L13.3407 6.18105C13.4754 5.75439 13.4074 5.2814 13.1574 4.91649C12.9074 4.55158 12.502 4.33333 12.0747 4.33333H11C10.802 4.33333 10.6147 4.42597 10.4874 4.58597L7.35404 8.54386H5.66671C4.93137 8.54386 4.33337 9.17333 4.33337 9.94737V16.2632C4.33337 17.0372 4.93137 17.6667 5.66671 17.6667H14.538C14.8093 17.6657 15.0739 17.5781 15.2969 17.4155C15.5198 17.2529 15.6906 17.0228 15.7867 16.7558L17.6247 11.5972C17.6526 11.5184 17.6668 11.435 17.6667 11.3509V9.94737C17.6667 9.17333 17.0687 8.54386 16.3334 8.54386ZM5.66671 9.94737H7.00004V16.2632H5.66671V9.94737ZM16.3334 11.2239L14.538 16.2632H8.33337V9.49965L11.312 5.73684H12.076L11.0347 9.02316C11.0009 9.12864 10.9915 9.24109 11.0072 9.35118C11.0229 9.46126 11.0634 9.56582 11.1251 9.65617C11.1869 9.74652 11.2683 9.82007 11.3625 9.87071C11.4567 9.92135 11.5609 9.94763 11.6667 9.94737H16.3334V11.2239Z" fill="#282828"/>
<circle cx="11" cy="11" r="10.75" stroke="#282828" stroke-width="0.5"/>
</svg>
