<svg width="16" height="16" viewBox="0 0 16 16" fill="none" xmlns="http://www.w3.org/2000/svg">
<path d="M12.6663 6.00004C12.6663 5.38721 12.5456 4.78037 12.3111 4.21418C12.0766 3.648 11.7328 3.13355 11.2995 2.70021C10.8662 2.26687 10.3517 1.92312 9.78553 1.6886C9.21934 1.45408 8.61251 1.33337 7.99967 1.33337C7.38684 1.33337 6.78 1.45408 6.21382 1.6886C5.64763 1.92312 5.13318 2.26687 4.69984 2.70021C4.2665 3.13355 3.92276 3.648 3.68824 4.21418C3.45371 4.78037 3.33301 5.38721 3.33301 6.00004C3.33301 6.92471 3.60567 7.78471 4.06967 8.51004H4.06434L7.91542 14.5349C7.95474 14.5964 8.04461 14.5964 8.08393 14.5349L11.935 8.51004H11.9303C12.4109 7.76109 12.6664 6.88992 12.6663 6.00004ZM7.99967 8.00004C7.46924 8.00004 6.96053 7.78933 6.58546 7.41425C6.21039 7.03918 5.99967 6.53047 5.99967 6.00004C5.99967 5.46961 6.21039 4.9609 6.58546 4.58583C6.96053 4.21075 7.46924 4.00004 7.99967 4.00004C8.53011 4.00004 9.03882 4.21075 9.41389 4.58583C9.78896 4.9609 9.99967 5.46961 9.99967 6.00004C9.99967 6.53047 9.78896 7.03918 9.41389 7.41425C9.03882 7.78933 8.53011 8.00004 7.99967 8.00004Z" fill="#7A7A7A"/>
</svg>
