<svg width="24" height="24" viewBox="0 0 24 24" fill="none" xmlns="http://www.w3.org/2000/svg">
<path d="M21.144 5.81396C21.1452 5.61258 21.1041 5.35536 20.914 5.15587L20.9121 5.1539C20.8326 5.07139 20.7357 5.0056 20.6266 4.96286C20.5244 4.92277 20.4148 4.90428 20.3045 4.90907H3.70772C3.48428 4.90196 3.27134 4.98458 3.11028 5.13209L3.11021 5.13201L3.10263 5.13925C3.01413 5.22378 2.94831 5.32713 2.90804 5.43931C2.87141 5.54136 2.8563 5.6496 2.863 5.75698V7.4656V7.71975L3.06832 7.86954L11.1133 13.7385C11.642 14.1241 12.3596 14.1226 12.8866 13.7347L20.9404 7.80641L21.144 7.65654V7.40373V5.81396ZM21.144 5.81396C21.144 5.81456 21.144 5.81516 21.144 5.81576L20.644 5.81227M21.144 5.81396V5.81227H20.644M20.644 5.81227V7.40373L20.317 5.40907H20.318C20.3609 5.40598 20.4038 5.41256 20.4442 5.42836C20.4845 5.44417 20.5212 5.46885 20.552 5.5008C20.614 5.56587 20.645 5.66933 20.644 5.81227ZM9.46269 13.0126L9.1077 12.7536L8.80527 13.0724L3.89527 18.2479L3.09444 19.092H4.258H19.583H20.7462L19.9458 18.248L15.0888 13.1258L14.7846 12.805L14.429 13.0676L12.2934 14.6445C12.1178 14.7742 11.8782 14.7749 11.7018 14.6462L9.46269 13.0126ZM21.14 9.11147V8.12144L20.3432 8.70906L15.5472 12.2461L15.0916 12.5822L15.4814 12.9928L20.2774 18.0445L21.14 18.9531V17.7003V9.11147ZM3.65569 8.7726L2.861 8.19284V9.17653V17.5349V18.7885L3.72375 17.879L8.40975 12.9393L8.80129 12.5266L8.34169 12.1913L3.65569 8.7726ZM20.333 4.5C20.9471 4.5 21.5 5.04119 21.5 5.77813V18.2219C21.5 18.9581 20.9478 19.5 20.333 19.5H3.667C3.05286 19.5 2.5 18.9588 2.5 18.2219V5.77813C2.5 5.04185 3.05224 4.5 3.667 4.5H20.333Z" fill="black" stroke="white"/>
</svg>
