<svg width="15" height="12" viewBox="0 0 15 12" fill="none" xmlns="http://www.w3.org/2000/svg">
<path d="M14.1673 1.92159C13.6766 2.1412 13.1476 2.28551 12.5994 2.35453C13.1603 2.02198 13.5937 1.49492 13.7977 0.861197C13.2687 1.17492 12.6823 1.39453 12.0641 1.52002C11.5606 0.980413 10.8531 0.666687 10.05 0.666687C8.55228 0.666687 7.32857 1.87139 7.32857 3.35845C7.32857 3.57178 7.35406 3.77884 7.39868 3.97335C5.12971 3.86041 3.10932 2.78747 1.76451 1.16237C1.52869 1.55767 1.39485 2.02198 1.39485 2.51139C1.39485 3.44629 1.87286 4.27453 2.61219 4.74512C2.15967 4.74512 1.73902 4.61963 1.36936 4.43139C1.36936 4.43139 1.36936 4.43139 1.36936 4.45022C1.36936 5.75531 2.31263 6.84708 3.56184 7.09178C3.33239 7.15453 3.0902 7.1859 2.84163 7.1859C2.66955 7.1859 2.49746 7.16708 2.33175 7.13571C2.67592 8.1961 3.67656 8.98669 4.88115 9.00551C3.95062 9.73335 2.77152 10.16 1.48408 10.16C1.26738 10.16 1.05068 10.1475 0.833984 10.1224C2.04495 10.8879 3.48535 11.3334 5.02774 11.3334C10.05 11.3334 12.8098 7.22982 12.8098 3.67218C12.8098 3.55296 12.8098 3.44002 12.8034 3.3208C13.3388 2.94433 13.7977 2.46747 14.1673 1.92159Z" fill="white"/>
</svg>
