<svg width="18" height="17" viewBox="0 0 18 17" fill="none" xmlns="http://www.w3.org/2000/svg">
<path fill-rule="evenodd" clip-rule="evenodd" d="M10.6968 8.12001L16.9192 1.89721C17.076 1.74041 17.076 1.48761 16.9192 1.33161L15.788 0.200008C15.632 0.0440078 15.3792 0.0440078 15.2224 0.200008L9 6.42321L2.7776 0.200008C2.6208 0.0440078 2.368 0.0440078 2.212 0.200008L1.08 1.33201C0.924001 1.48801 0.924001 1.74001 1.08 1.89721L7.3032 8.12001L1.08 14.3416C0.924001 14.4984 0.924001 14.7512 1.08 14.9072L2.212 16.038C2.368 16.1948 2.6208 16.1948 2.7776 16.038L9 9.81601L15.2224 16.0388C15.3792 16.1956 15.632 16.1956 15.788 16.0388L16.9192 14.9076C17.076 14.7516 17.076 14.4984 16.9192 14.3416L10.6968 8.12001Z" fill="#282828"/>
</svg>
