<svg width="180" height="20" viewBox="0 0 180 20" fill="none" xmlns="http://www.w3.org/2000/svg">
<path d="M163.722 4.97739V14.807C163.722 17.1548 165.615 19.0957 167.917 19.0957C169.81 19.0957 171.293 17.9374 171.829 16.2783L172.271 17.0609C173.06 18.3757 174.448 19.0957 175.867 19.0957C178.17 19.0957 180 17.28 180 14.9635C180 14.1809 179.811 13.4296 179.369 12.7409L177.729 10.1426C178.927 9.23478 179.653 7.79478 179.653 6.04174C179.653 2.81739 177.066 0.313043 173.754 0.313043H168.296C165.331 0.313043 163.722 1.90956 163.722 4.97739Z" fill="#05CE78"/>
<path d="M162.47 15.4966C162.47 13.6973 161.319 12.3399 159.732 12.0243C160.448 11.5508 160.883 10.7616 160.883 9.7199C160.883 8.6782 160.479 7.88904 159.732 7.41554C161.35 7.09987 162.47 5.77407 162.47 3.94321C162.47 1.92294 160.852 0.313043 158.892 0.313043H152.36C149.374 0.313043 147.757 1.92294 147.757 4.98491V14.4233C147.757 17.5169 149.374 19.0952 152.36 19.0952H158.892C160.852 19.1268 162.47 17.5169 162.47 15.4966Z" fill="#05CE78"/>
<path d="M142.685 14.8696V8.38956C144.783 8.29565 146.504 6.54261 146.504 4.3513C146.504 2.09739 144.689 0.313043 142.466 0.313043H133.951C131.729 0.313043 129.913 2.06609 129.913 4.3513C129.913 6.54261 131.635 8.26435 133.732 8.38956V14.8696C133.732 17.1861 135.704 19.0957 138.146 19.0957C140.744 19.0957 142.685 17.1861 142.685 14.8696Z" fill="#05CE78"/>
<path d="M113.322 4.97739V14.807C113.322 17.1548 115.215 19.0957 117.517 19.0957C119.41 19.0957 120.893 17.9374 121.429 16.2783L121.871 17.0609C122.66 18.3757 124.048 19.0957 125.467 19.0957C127.77 19.0957 129.6 17.28 129.6 14.9635C129.6 14.1809 129.411 13.4296 128.969 12.7409L127.329 10.1426C128.527 9.23478 129.253 7.79478 129.253 6.04174C129.253 2.81739 126.666 0.313043 123.354 0.313043H117.896C114.962 0.313043 113.322 1.90956 113.322 4.97739Z" fill="#05CE78"/>
<path d="M102.966 15.5174C104.034 17.7253 105.542 18.7826 107.395 18.7826C110.725 18.7826 113.081 15.7662 111.636 12.3766L107.772 3.42067C106.83 1.21278 105.416 0 102.998 0C100.61 0 99.1968 1.21278 98.223 3.42067L94.3594 12.3766C92.883 15.7662 95.2703 18.7826 98.5685 18.7826C100.39 18.7826 101.898 17.7253 102.966 15.5174Z" fill="#05CE78"/>
<path d="M91.965 14.8696V8.38956C94.0663 8.29565 95.7913 6.54261 95.7913 4.3513C95.7913 2.09739 93.9722 0.313043 91.7454 0.313043H83.2459C81.0191 0.313043 79.2 2.06609 79.2 4.3513C79.2 6.54261 80.925 8.26435 83.0263 8.38956V14.8696C83.0263 17.1861 85.0022 19.0957 87.4486 19.0957C89.989 19.0957 91.965 17.1861 91.965 14.8696Z" fill="#05CE78"/>
<path d="M79.2 13.0026C79.2 11.1182 78.2589 9.79908 76.8473 8.54279L75.6866 7.50635C77.3806 7.25509 78.5099 6.12443 78.5099 4.45984C78.5099 1.66459 76.2826 0 71.5772 0C66.9658 0 64.268 2.32414 64.268 5.9988C64.268 7.88324 65.2405 9.17094 66.6521 10.4586L67.7814 11.4951H67.7501C65.6483 11.4951 64.1739 12.72 64.1739 14.6358C64.1739 17.3997 66.4953 19.0957 71.4517 19.0957C76.314 19.0957 79.2 16.7401 79.2 13.0026Z" fill="#05CE78"/>
<path d="M63.2348 14.5773C63.2348 13.7051 62.982 12.8641 62.4449 12.1166L60.4227 9.3444L62.4449 6.57223C62.982 5.85582 63.2348 4.98368 63.2348 4.11153C63.2348 1.80658 61.3074 0.031148 59.0324 0.031148C57.7053 0.031148 56.3783 0.685256 55.5567 1.80658L54.5772 3.17709C54.1981 1.33936 52.5866 0 50.5328 0C48.1631 0 46.3304 1.86888 46.3304 4.17383V14.6084C46.3304 16.9134 48.1947 18.7822 50.5328 18.7822C52.555 18.7822 54.1349 17.5363 54.5456 15.7297L55.4303 16.9757C56.2519 18.1593 57.6105 18.7822 58.9376 18.7822C61.3074 18.8134 63.2348 16.8822 63.2348 14.5773Z" fill="#05CE78"/>
<path d="M44.7652 13.6205C44.7652 11.6303 43.7693 10.2309 41.7776 9.3913C43.7693 8.55168 44.7652 7.18341 44.7652 5.16211C44.7652 2.1457 42.2444 0 38.1986 0C32.7835 0 28.8 4.01152 28.8 9.3913C28.8 14.7711 32.7835 18.7826 38.1986 18.7826C42.2444 18.7826 44.7652 16.6369 44.7652 13.6205Z" fill="#05CE78"/>
<path d="M22.7113 0C20.1809 0 18.1565 2.05922 18.1565 4.49285V14.2898C18.1565 16.7546 20.1809 18.7826 22.6797 18.7826C25.2417 18.7826 27.2344 16.7234 27.2344 14.2898V4.49285C27.266 2.05922 25.2417 0 22.7113 0Z" fill="#05CE78"/>
<path d="M16.9043 14.5773C16.9043 13.7051 16.652 12.8641 16.1159 12.1166L14.0975 9.3444L16.1159 6.57223C16.652 5.85582 16.9043 4.98368 16.9043 4.11153C16.9043 1.80658 14.9805 0.031148 12.7098 0.031148C11.3852 0.031148 10.0606 0.685256 9.24062 1.80658L8.23141 3.17709C7.85295 1.33936 6.24452 0 4.19455 0C1.8292 0 0 1.86888 0 4.17383V14.6084C0 16.9134 1.86074 18.7822 4.19455 18.7822C6.21298 18.7822 7.78988 17.5363 8.19987 15.7297L9.08293 16.9757C9.90292 18.1593 11.2591 18.7822 12.5836 18.7822C14.9805 18.8134 16.9043 16.8822 16.9043 14.5773Z" fill="#05CE78"/>
</svg>
